PathFileType	4	(X/Y/Z)	5_coords_data.trc
DataRate	CameraRate	NumFrames	NumMarkers	Units	OrigDataRate	OrigDataStartFrame	OrigNumFrames
30.0	30.0	4	21	m	30.0	1	63
Frame#	Time	THUMB_TIP	THUMB_IP	THUMB_MCP	THUMB_CMC	INDEX_TIP	INDEX_DIP	INDEX_PIP	INDEX_MCP	MIDDLE_TIP	MIDDLE_DIP	MIDDLE_PIP	MIDDLE_MCP	RING_TIP	RING_DIP	RING_PIP	RING_MCP	PINKY_TIP	PINKY_DIP	PINKY_PIP	PINKY_MCP	WRIST
X1	Y1	Z1	X2	Y2	Z2	X3	Y3	Z3	X4	Y4	Z4	X5	Y5	Z5	X6	Y6	Z6	X7	Y7	Z7	X8	Y8	Z8	X9	Y9	Z9	X10	Y10	Z10	X11	Y11	Z11	X12	Y12	Z12	X13	Y13	Z13	X14	Y14	Z14	X15	Y15	Z15	X16	Y16	Z16	X17	Y17	Z17	X18	Y18	Z18	X19	Y19	Z19	X20	Y20	Z20	X21	Y21	Z21
0	0.0	-0.03757630157470703	-0.18044900512695314	1.0162899780273438	-0.029640899658203126	-0.1545429992675781	1.0178599853515624	-0.030559999465942383	-0.12921000671386718	1.0346099853515625	-0.02736669921875	-0.09457759857177735	1.0401700439453125	-0.01870829963684082	-0.10395099639892579	1.0279000244140626	-0.009068120002746581	-0.10779299926757813	1.009489990234375	-0.008463390350341797	-0.11494699859619141	0.9866599731445312	-0.04993040084838867	-0.11537899780273438	0.9915360107421874	-0.021828100204467772	-0.0910802993774414	1.0216400146484375	-0.007983240127563478	-0.0913865966796875	1.0080999755859374	-0.007523680210113525	-0.09472100067138672	0.980031982421875	-0.05147999954223633	-0.09445079803466797	0.9849149780273437	-0.021787900924682618	-0.07433000183105469	1.0225999755859374	-0.009156479835510253	-0.07496410369873047	1.00625	-0.0076171598434448245	-0.0750896987915039	0.979927001953125	-0.047402500152587894	-0.0755448989868164	0.9838569946289063	-0.02440139961242676	-0.06146609878540039	1.0163400268554688	-0.009937649726867675	-0.060954498291015624	1.0050999755859376	-0.009172590255737304	-0.060067600250244144	0.9879229736328125	-0.0394093017578125	-0.057334800720214844	0.9852130126953125	-0.036608501434326174	-0.06427210235595703	1.0508499755859375
1	0.03333333333333333	-0.03705659866333008	-0.18007000732421874	1.0153400268554686	-0.02963689994812012	-0.15432000732421874	1.016719970703125	-0.030632299423217775	-0.12959800720214842	1.0333299560546876	-0.027681400299072265	-0.09513269805908203	1.0409100341796875	-0.021818500518798828	-0.10450800323486328	1.0233900146484376	-0.009794360160827636	-0.10693699645996094	1.0085	-0.009288080215454101	-0.11373600006103515	0.986010986328125	-0.04963180160522461	-0.11361699676513672	0.990135009765625	-0.019692800521850587	-0.09081960296630859	1.0218699951171875	-0.008363579750061035	-0.09063719940185547	1.0076900024414062	-0.008392120361328125	-0.09485710144042969	0.980166015625	-0.05087960052490234	-0.09429129791259766	0.9841740112304688	-0.022039499282836914	-0.07455609893798829	1.0209199829101563	-0.00905364990234375	-0.07445130157470703	1.0064400024414062	-0.007620689868927002	-0.07565329742431641	0.9804719848632812	-0.04765380096435547	-0.0753198013305664	0.9838189697265625	-0.023923200607299806	-0.060233699798583985	1.0165599975585937	-0.010434100151062012	-0.06027569961547852	1.0059099731445313	-0.00991471004486084	-0.06009349822998047	0.9882670288085937	-0.03926160049438476	-0.05726210021972656	0.9864970092773437	-0.039042900085449216	-0.064247802734375	1.05322998046875
2	0.06666666666666667	-0.03676089859008789	-0.1797050018310547	1.0147100219726561	-0.029356000900268554	-0.15402299499511718	1.01622998046875	-0.030505699157714845	-0.12928700256347656	1.0330400390625	-0.02743160057067871	-0.09492539978027344	1.0406400146484376	-0.021713699340820312	-0.10403600311279297	1.0228699951171876	-0.009517450332641602	-0.10658499908447265	1.0083099975585939	-0.008958589553833008	-0.11331600189208985	0.9858250122070312	-0.049458301544189454	-0.11323400115966797	0.9898300170898438	-0.019595699310302736	-0.09051290130615235	1.02177001953125	-0.008204070091247559	-0.09034040069580078	1.007489990234375	-0.00817057991027832	-0.09451029968261719	0.9801290283203125	-0.05069660186767578	-0.0939343032836914	0.9840460205078125	-0.021982799530029296	-0.07430290222167969	1.0207899780273437	-0.00891553020477295	-0.07414700317382812	1.0063699951171876	-0.007405230045318603	-0.07525859832763672	0.980447021484375	-0.04745240020751953	-0.07490509796142578	0.9836259765625	-0.023691799163818358	-0.05988750076293945	1.016239990234375	-0.01017020034790039	-0.05993629837036133	1.0056900024414062	-0.009696189880371093	-0.0596859016418457	0.988155029296875	-0.03903680038452149	-0.0569109001159668	0.9863280029296875	-0.038950901031494144	-0.06397309875488282	1.053
3	0.1	-0.03635329818725586	-0.17938200378417968	1.0143200073242187	-0.029043500900268554	-0.15363099670410157	1.0159299926757812	-0.030306299209594725	-0.12896200561523438	1.03272998046875	-0.02733489990234375	-0.09459970092773437	1.0404200439453124	-0.021580299377441405	-0.10386699676513672	1.02222998046875	-0.009313329696655274	-0.10622699737548828	1.0080900268554687	-0.008841879844665527	-0.11296499633789063	0.9855499877929688	-0.049275299072265626	-0.1128990020751953	0.9894929809570312	-0.019260000228881836	-0.09023880004882813	1.0214600219726562	-0.008190500259399413	-0.09002149963378907	1.007239990234375	-0.007946340084075928	-0.09407379913330079	0.9799140014648438	-0.05052399826049805	-0.09353990173339843	0.9837639770507812	-0.02185930061340332	-0.07395600128173828	1.0206300048828125	-0.008822059631347657	-0.07379609680175782	1.0062000122070311	-0.007089869976043701	-0.07480889892578126	0.98027099609375	-0.047290401458740236	-0.07456220245361328	0.9834869995117187	-0.023552700042724608	-0.059567001342773436	1.016280029296875	-0.010060500144958497	-0.05961159896850586	1.0056300048828124	-0.009532420158386231	-0.05932559967041016	0.9880889892578125	-0.038894298553466794	-0.05655500030517578	0.9861300048828125	-0.03894200134277344	-0.06372129821777343	1.0527900390625
